<?xml version="1.0" encoding="UTF-8" standalone="no"?>
<svg
   xmlns:dc="http://purl.org/dc/elements/1.1/"
   xmlns:cc="http://creativecommons.org/ns#"
   xmlns:rdf="http://www.w3.org/1999/02/22-rdf-syntax-ns#"
   xmlns:svg="http://www.w3.org/2000/svg"
   xmlns="http://www.w3.org/2000/svg"
   xmlns:sodipodi="http://sodipodi.sourceforge.net/DTD/sodipodi-0.dtd"
   xmlns:inkscape="http://www.inkscape.org/namespaces/inkscape"
   width="297mm"
   height="297mm"
   viewBox="0 0 296.99999 296.99999"
   version="1.1"
   id="svg8"
   sodipodi:docname="admiral.svg"
   inkscape:version="1.0.1 (3bc2e813f5, 2020-09-07)">
  <defs
     id="defs2" />
  <sodipodi:namedview
     id="base"
     pagecolor="#ffffff"
     bordercolor="#666666"
     borderopacity="1.0"
     inkscape:pageopacity="0.0"
     inkscape:pageshadow="2"
     inkscape:zoom="0.5"
     inkscape:cx="1287.8215"
     inkscape:cy="402.59457"
     inkscape:document-units="mm"
     inkscape:current-layer="layer1"
     inkscape:document-rotation="0"
     showgrid="false"
     inkscape:window-width="2560"
     inkscape:window-height="1392"
     inkscape:window-x="-2"
     inkscape:window-y="-2"
     inkscape:window-maximized="1" />
  <metadata
     id="metadata5">
    <rdf:RDF>
      <cc:Work
         rdf:about="">
        <dc:format>image/svg+xml</dc:format>
        <dc:type
           rdf:resource="http://purl.org/dc/dcmitype/StillImage" />
        <dc:title></dc:title>
      </cc:Work>
    </rdf:RDF>
  </metadata>
  <g
     inkscape:label="Warstwa 1"
     inkscape:groupmode="layer"
     id="layer1">
    <g
       id="g2918"
       transform="translate(44.067497,-0.81706899)">
      <path
         id="path860"
         style="fill:#1ed198;fill-opacity:1;stroke:none;stroke-width:0.264583px;stroke-linecap:butt;stroke-linejoin:miter;stroke-opacity:0.620564"
         d="m 53.268551,111.2444 c 0,0 -0.240139,0.0913 -0.617535,0.27544 l -0.22996,5.3e-4 0.02946,0.10077 c -1.656702,0.84945 -4.922208,3.21103 -4.863268,7.66671 -0.0373,4.37651 1.53509,6.67511 2.782259,7.45226 l -0.05064,22.15679 -5.177461,7.25692 c 0,0 -0.919427,1.49659 -0.885217,4.38784 0.0134,1.13234 -0.08009,2.76447 2.098063,5.73971 l 3.87625,5.8477 -0.07235,19.65462 -5.968628,18.8159 c 0,0 -0.878448,2.29014 -0.872298,5.85236 0.0105,6.05057 4.849318,30.69425 4.849315,30.69425 0,0 2.006267,5.51137 3.782716,7.84448 2.951181,3.87595 22.009801,19.13653 28.71711,24.24193 4.845381,2.38959 11.495061,5.05752 16.424836,5.97018 4.006897,0.7418 5.750047,0.20205 5.750047,0.20205 0,0 1.67775,-0.0537 5.75003,-0.20205 4.07228,-0.14836 11.5438,-3.30412 16.38918,-5.69371 6.70731,-5.10539 26.06514,-20.60938 29.01632,-24.48533 1.77645,-2.33311 3.67161,-7.89667 3.67161,-7.89667 0,0 4.68637,-24.62457 4.69687,-30.67513 0.006,-3.56222 -0.64647,-5.88853 -0.64647,-5.88853 l -5.55212,-17.1881 0.11782,-21.43538 3.47886,-5.12372 c 2.17815,-2.97523 2.33478,-5.14222 2.34818,-6.27456 0.0342,-2.89125 -1.06867,-4.76766 -1.06867,-4.76766 l -5.15524,-6.8771 0.0455,-22.39553 c 1.24717,-0.77716 2.54464,-2.83701 2.50734,-7.21352 0.0589,-4.45511 -3.55095,-6.81647 -5.20795,-7.6662 l 0.0295,-0.10128 -0.23048,-5.3e-4 c -0.37739,-0.18417 -0.61753,-0.27544 -0.61753,-0.27544 l -49.57268,0.13695 z m 96.860749,20.44837 -0.0387,19.34714 5.37744,7.24813 c 0.65582,0.83569 0.84485,2.52068 0.46716,3.14761 -0.60123,0.83015 -5.75779,8.85011 -5.75779,8.85011 l -0.0589,24.77368 c 0,0 -2.99466,5.64225 -4.23643,7.51737 -1.15979,1.75132 -4.53306,6.32778 -4.53306,6.32778 0,0 -7.79029,-5.68841 -10.96005,-9.39064 -3.16975,-3.70223 -6.50918,-5.89166 -8.8036,-6.23941 -2.29443,-0.34776 -5.35555,-0.55784 -7.80366,-0.21136 -2.64911,0.5425 -5.396,2.30945 -7.54321,4.96197 -3.4826,-4.95773 -8.418761,-5.00762 -10.464474,-5.117 -2.468978,-0.132 -5.629026,0.50228 -7.936984,1.74873 -2.041874,1.10274 -5.267269,3.91267 -8.392252,7.65277 -3.400846,4.07026 -12.409062,8.86147 -12.409062,8.86147 0,0 -5.557628,-6.47867 -6.717419,-8.22999 -1.241769,-1.87512 -3.918624,-6.91586 -3.918624,-6.91586 l 0.03721,-25.67336 c 0,0 -4.958638,-8.02048 -5.559867,-8.85063 -0.37769,-0.62693 -0.408291,-2.18893 0.247529,-3.02462 l 5.292185,-7.39076 -0.21911,-18.85156 c 0,0 4.279808,2.81164 8.678024,4.67723 4.398216,1.86559 10.664584,4.02634 17.921904,5.70146 9.034192,2.21247 20.83232,2.36988 20.83232,2.36988 0,0 11.79864,-0.15741 20.83283,-2.36988 7.25732,-1.67512 17.68781,-6.20117 17.68781,-6.20117 z m -43.89189,71.21994 c 0,0 3.17936,4.3125 4.88859,5.63686 1.16814,0.90513 6.46911,4.25953 8.42946,5.18729 1.84433,0.87283 10.82088,4.34011 11.42049,4.23023 0.59961,-0.10988 -27.16423,19.16162 -27.16423,19.16162 0,0 -27.725087,-18.41626 -27.125478,-18.30638 0.599609,0.10988 9.806853,-2.40328 11.719697,-3.1135 2.330278,-0.86522 7.773633,-3.43582 9.914126,-4.91495 2.317925,-1.60174 5.273335,-4.28255 7.917345,-7.88117 z" />
      <path
         id="path1493"
         style="fill:#05a2d8;fill-opacity:1;stroke:none;stroke-width:0.264583px;stroke-linecap:butt;stroke-linejoin:miter;stroke-opacity:0.473221"
         d="M 103.33474,8.8950969 C 87.254213,8.9043044 84.416438,8.9592187 83.525618,9.2552821 81.130287,10.05136 50.01552,19.718209 50.01552,19.718209 l -13.406418,4.473112 c 0,0 -1.506851,0.455615 -1.948201,1.175123 -0.44135,0.71951 -16.043982,38.076227 -16.043982,38.076227 0,0 -0.899426,1.494467 -0.510046,2.999817 0.38937,1.505349 1.383075,2.28302 2.690275,3.189469 1.3072,0.906449 1.886917,1.046039 4.484997,2.25361 2.59808,1.207569 15.914274,6.8802 15.914274,6.8802 l 7.115846,20.887613 55.022475,-0.15968 55.02249,0.15968 7.11636,-20.887613 c 0,0 13.31619,-5.672631 15.91427,-6.8802 2.59808,-1.20757 3.1778,-1.34716 4.485,-2.25361 1.3072,-0.906449 2.3009,-1.684119 2.69027,-3.189469 0.38938,-1.505349 -0.51004,-2.999817 -0.51004,-2.999817 0,0 -15.60315,-37.356717 -16.0445,-38.076227 -0.44135,-0.719508 -1.94769,-1.175123 -1.94769,-1.175123 l -13.40641,-4.473112 c 0,0 -31.11477,-9.666849 -33.5101,-10.4629269 -0.89082,-0.2960634 -3.72911,-0.3509856 -19.80965,-0.3601852 z m 5.3e-4,14.8254511 c 2.98246,8e-6 5.40022,2.461024 5.40019,5.496821 3e-5,3.035798 -1.19626,3.528986 -2.25051,4.520655 l 0.0372,7.19336 c 3.28467,0.167063 4.84845,-0.08478 5.56555,0.143144 1.15957,0.368576 1.55815,2.180866 1.59474,3.376539 0.0366,1.195673 -0.0667,3.674705 -2.54869,3.774445 -1.80738,0.07263 -3.87004,0.02997 -3.87004,0.02997 l 0.52141,23.652304 c 0,0 1.62354,0.01113 3.7114,-0.561207 2.1839,-0.598666 4.74468,-1.304776 7.14582,-2.368847 1.71033,-0.757936 3.67399,-1.66522 5.99292,-3.233911 2.12145,-1.435106 4.3705,-3.708621 5.93607,-5.989299 1.57806,-2.298871 2.36659,-4.581937 2.72335,-7.171138 0.0676,-1.123608 0.15916,-2.478919 0.15916,-2.478919 l -1.30225,-0.01241 c 0,0 -0.6867,0.0405 -0.7121,-0.656807 -0.0335,-0.920512 3.15759,-5.837045 4.81521,-8.711097 0.24132,-0.418399 0.66896,-0.989605 1.15755,-0.989605 0.4886,0 1.07117,1.012253 1.4733,1.711007 0.37147,0.645475 4.22697,6.866544 4.24367,7.790739 0.014,0.775866 -0.47104,0.870259 -0.92501,0.851627 -0.81621,-0.03348 -1.64228,-0.05116 -1.64228,-0.05116 0,0 0.42729,2.435333 -0.73535,6.76703 -0.37113,1.382717 -2.64541,6.059652 -4.65967,8.135937 -2.14313,2.209123 -6.40673,6.254007 -11.39155,8.085812 -4.98484,1.831805 -8.93008,3.476131 -12.32793,3.979602 -1.14604,0.169812 -2.43237,0.293706 -3.43545,0.446484 0,0 0.0136,5.240677 0.008,6.285921 -0.005,1.045245 -1.07539,1.07487 -1.07539,1.07487 l -7.823808,0.0155 c 0,0 -0.767463,-0.04724 -0.737423,-0.841809 l 0.09767,-6.336047 c 0,0 -0.06763,5.541474 -0.09767,6.336047 l 0.274379,-6.534476 c -1.003081,-0.152778 -2.289411,-0.276671 -3.435451,-0.446484 -3.39784,-0.50347 -7.343098,-2.147796 -12.32793,-3.979602 -4.984818,-1.831804 -9.248425,-5.876688 -11.39155,-8.085812 -2.01426,-2.076287 -4.288536,-6.753222 -4.659664,-8.135937 -1.16264,-4.331697 -0.735357,-6.76703 -0.735357,-6.76703 0,0 -0.826066,0.01767 -1.642277,0.05116 -0.453969,0.01863 -0.939027,-0.07576 -0.925007,-0.851628 0.01669,-0.924194 3.872198,-7.145263 4.243668,-7.790738 0.40213,-0.698754 0.984695,-1.711007 1.473295,-1.711007 0.488591,0 0.916242,0.571206 1.157552,0.989605 1.65762,2.874052 4.848749,7.790585 4.815211,8.711097 -0.0254,0.697309 -0.712103,0.656806 -0.712103,0.656806 l -1.302244,0.01241 c 0,0 0.09159,1.355312 0.159162,2.47892 0.356746,2.5892 1.145289,4.872266 2.723349,7.171138 1.565568,2.28068 3.814611,4.554193 5.93607,5.989299 2.31893,1.568692 4.282596,2.475974 5.992918,3.233911 2.401139,1.06407 4.961916,1.770179 7.145816,2.368847 2.087859,0.572339 3.711401,0.561207 3.711401,0.561207 l 0.521932,-23.652304 c 0,0 -2.062667,0.04266 -3.870049,-0.02997 -2.481969,-0.09974 -2.58527,-2.578772 -2.548681,-3.774445 0.0366,-1.195673 0.435176,-3.007963 1.594736,-3.376539 0.717108,-0.227933 2.28088,0.02392 5.565555,-0.143144 l 0.0367,-7.19336 c -1.542394,-1.25368 -2.250006,-1.484857 -2.249985,-4.520655 -2.4e-5,-3.035797 2.417725,-5.496814 5.400185,-5.496821 z" />
    </g>
  </g>
</svg>
